<?xml version="1.0" encoding="utf-8"?>
<!-- Generator: Adobe Illustrator 16.0.0, SVG Export Plug-In . SVG Version: 6.00 Build 0)  -->
<!DOCTYPE svg PUBLIC "-//W3C//DTD SVG 1.1//EN" "http://www.w3.org/Graphics/SVG/1.1/DTD/svg11.dtd">
<svg version="1.1" id="图层_1" xmlns="http://www.w3.org/2000/svg" xmlns:xlink="http://www.w3.org/1999/xlink" x="0px" y="0px"
	 width="196.324px" height="180.147px" viewBox="0 0 196.324 180.147" enable-background="new 0 0 196.324 180.147"
	 xml:space="preserve">
<path fill-rule="evenodd" clip-rule="evenodd" fill="#414041" d="M151.958,52.125H43.252c-2.23,0-4.041-1.812-4.041-4.041
	c0-2.234,1.811-4.046,4.041-4.046h108.705c2.23,0,4.039,1.812,4.039,4.046C155.997,50.313,154.188,52.125,151.958,52.125
	L151.958,52.125L151.958,52.125"/>
<path fill-rule="evenodd" clip-rule="evenodd" fill="#414041" d="M151.958,93.792H43.252c-2.23,0-4.041-1.812-4.041-4.041
	c0-2.234,1.811-4.047,4.041-4.047h108.705c2.23,0,4.039,1.812,4.039,4.047C155.997,91.979,154.188,93.792,151.958,93.792
	L151.958,93.792L151.958,93.792"/>
<path fill-rule="evenodd" clip-rule="evenodd" fill="#414041" d="M151.958,135.458H43.252c-2.23,0-4.041-1.812-4.041-4.041
	c0-2.234,1.811-4.046,4.041-4.046h108.705c2.23,0,4.039,1.812,4.039,4.046C155.997,133.646,154.188,135.458,151.958,135.458
	L151.958,135.458L151.958,135.458"/>
</svg>
